<?xml version="1.0" encoding="utf-8"?>
<!-- Generator: Adobe Illustrator 24.1.1, SVG Export Plug-In . SVG Version: 6.00 Build 0)  -->
<svg version="1.1" xmlns="http://www.w3.org/2000/svg" xmlns:xlink="http://www.w3.org/1999/xlink" x="0px" y="0px"
	 viewBox="0 0 428.97 220.98" style="enable-background:new 0 0 428.97 220.98;" xml:space="preserve">
<style type="text/css">
	.st0{fill:#E3000F;}
	.st1{fill:#FFFFFF;}
</style>
<g id="BG">
</g>
<g id="Logo">
	<g>
		<path class="st0" d="M182.47,79.42L167.8,124.5c-0.03,0.08,0,0.16,0.07,0.21c0,0,0.11,0.1,0.22,0.18
			c0.12,0.08,0.24,0.16,0.24,0.16c0.07,0.05,0.16,0.05,0.22,0l38.34-27.88l38.33,27.88c0.06,0.05,0.15,0.05,0.22,0
			c0,0,0.12-0.07,0.24-0.16c0.12-0.09,0.22-0.18,0.22-0.18c0.07-0.05,0.1-0.14,0.07-0.21l-14.67-45.07l38.36-27.84
			c0.07-0.05,0.1-0.13,0.07-0.21c0,0-0.03-0.14-0.08-0.28c-0.04-0.14-0.1-0.27-0.1-0.27c-0.02-0.08-0.1-0.13-0.18-0.13l-47.4,0.02
			L207.36,5.62c-0.02-0.08-0.1-0.13-0.18-0.13c0,0-0.14-0.01-0.29-0.01c-0.14,0-0.29,0.01-0.29,0.01c-0.08,0-0.16,0.06-0.18,0.13
			L191.8,50.71l-47.4-0.02c-0.08,0-0.15,0.05-0.18,0.13c0,0-0.06,0.13-0.1,0.27c-0.04,0.14-0.07,0.28-0.07,0.28
			c-0.03,0.08,0,0.17,0.07,0.21L182.47,79.42z"/>
		<g>
			<path class="st1" d="M246.1,130.45c-0.73,0-1.43-0.21-2.02-0.59c0,0,0,0,0,0c0,0-1.53-0.95-3.89-2.55
				c-6.89-4.65-23.78-16.11-33.3-22.85c-9.12,6.46-24.73,17.06-33.29,22.85c-2.38,1.61-3.91,2.56-3.92,2.57
				c-0.56,0.37-1.25,0.57-1.99,0.57c-0.67,0-1.34-0.18-1.85-0.48c-0.47-0.28-0.87-0.58-0.97-0.65c-0.18-0.11-0.46-0.32-0.91-0.71
				c-0.82-0.71-1.51-2.18-1.09-3.71c0-0.01,0.42-1.7,1.22-4.49c2.86-9.93,8.11-28.03,11.45-38.73c-8.97-6.68-23.87-18.25-32.02-24.6
				c-2.27-1.77-3.64-2.93-3.65-2.94c-1.17-0.93-1.53-2.53-1.27-3.62c0.12-0.51,0.26-0.95,0.31-1.1c0.05-0.22,0.17-0.56,0.4-1.11
				c0.42-1,1.6-2.11,3.19-2.18l0,0c-0.01,0,1.75-0.13,4.65-0.23c10.34-0.35,29.2-0.95,40.37-1.08c3.58-10.58,9.98-28.34,13.5-38.06
				c0.99-2.74,1.66-4.37,1.67-4.38c0.52-1.39,1.93-2.23,3.05-2.33c0.42-0.04,0.81-0.04,1.01-0.04l0.17,0l0.12,0c0,0,0,0,0,0
				c0.21,0,0.6,0.01,1.02,0.04c1.08,0.09,2.5,0.87,3.06,2.36h0c0.16,0.39,0.81,2.04,1.65,4.35c3.53,9.74,9.94,27.52,13.5,38.06
				c11.19,0.13,30.04,0.73,40.37,1.08c2.91,0.1,4.66,0.23,4.68,0.23c1.56,0.07,2.74,1.18,3.16,2.18c0.19,0.44,0.33,0.87,0.39,1.06
				c0.12,0.26,0.21,0.63,0.33,1.14c0.25,1.06-0.05,2.65-1.3,3.64c-0.24,0.2-1.56,1.3-3.63,2.91c-8.16,6.36-23.06,17.93-32.02,24.61
				c3.34,10.69,8.59,28.8,11.44,38.73c0.81,2.82,1.23,4.52,1.23,4.53c0.42,1.5-0.28,2.96-1.1,3.67c-0.38,0.33-0.74,0.59-0.88,0.69
				c-0.2,0.18-0.52,0.39-0.99,0.67C247.44,130.28,246.77,130.45,246.1,130.45z"/>
		</g>
		<path class="st0" d="M182.47,79.42L167.8,124.5c-0.03,0.08,0,0.16,0.07,0.21c0,0,0.11,0.1,0.22,0.18
			c0.12,0.08,0.24,0.16,0.24,0.16c0.07,0.05,0.16,0.05,0.22,0l38.34-27.88l38.33,27.88c0.06,0.05,0.15,0.05,0.22,0
			c0,0,0.13-0.07,0.24-0.16c0.12-0.09,0.22-0.18,0.22-0.18c0.07-0.05,0.1-0.14,0.07-0.21l-14.67-45.07l38.36-27.84
			c0.07-0.05,0.1-0.13,0.07-0.21c0,0-0.03-0.14-0.08-0.28c-0.04-0.14-0.1-0.27-0.1-0.27c-0.02-0.08-0.1-0.13-0.18-0.13l-47.4,0.02
			L207.36,5.62c-0.02-0.08-0.1-0.13-0.18-0.13c0,0-0.14-0.01-0.29-0.01c-0.14,0-0.29,0.01-0.29,0.01c-0.09,0-0.16,0.06-0.18,0.13
			L191.8,50.71l-47.4-0.02c-0.08,0-0.15,0.05-0.18,0.13c0,0-0.06,0.13-0.1,0.27c-0.04,0.14-0.07,0.28-0.07,0.28
			c-0.03,0.08,0,0.17,0.07,0.21L182.47,79.42z"/>
		<g>
			<path class="st1" d="M295.51,115.34l0.03-0.42h-2.81c-0.11,2.52,1.42,4.21,3.97,4.21c2.78,0,4.46-1.69,4.46-4.47
				c0-1.6-0.64-3.15-2.32-3.56v-0.05c1.47-0.59,1.85-2.12,1.85-3.54c0-2.41-1.4-3.94-3.83-3.94c-2.76,0-3.63,2.01-3.54,4.45h2.61
				v-0.31c0-0.66,0.14-1.57,1-1.57c0.87,0,1.03,0.87,1.03,1.54c0,1.68-0.68,1.99-2.31,1.99v2.61c1.7-0.06,2.27,0.41,2.27,2.1
				c0,0.89-0.08,2.13-1.3,2.13C295.83,116.51,295.51,115.83,295.51,115.34"/>
			<polygon class="st1" points="289.59,103.79 281.44,103.79 281.44,106.38 285.49,106.38 280.79,118.88 283.91,118.88 			"/>
			<path class="st1" d="M274.01,110.75v-0.04c1.4-0.47,2.07-1.76,2.07-3.19c0-2.21-1.49-3.96-3.77-3.96c-2.31,0-3.78,1.74-3.78,3.96
				c0,1.44,0.72,2.72,2.05,3.18v0.05c-1.86,0.63-2.62,2.05-2.62,3.99c0,2.48,1.83,4.38,4.35,4.38c2.53,0,4.31-1.9,4.31-4.38
				C276.62,112.84,275.91,111.35,274.01,110.75 M272.25,105.89c0.81,0,0.92,1.05,0.92,1.61c0,0.54,0,1.69-0.92,1.69
				c-0.75,0-0.84-1.15-0.84-1.71C271.41,106.93,271.53,105.89,272.25,105.89 M272.28,116.51c-1.04,0-1.25-1.37-1.25-2.13
				c0-0.78,0.22-2.19,1.23-2.19c0.97,0,1.33,1.44,1.33,2.19C273.59,115.11,273.3,116.51,272.28,116.51"/>
			<polygon class="st1" points="262.73,103.79 258.4,103.79 258.4,106.38 259.85,106.38 259.85,118.88 262.73,118.88 			"/>
		</g>
		<g>
			<polygon class="st1" points="122.47,103.79 115.87,103.79 115.87,118.88 122.5,118.88 122.5,116.07 119.13,116.07 119.13,112.67 
				122.06,112.67 122.06,109.87 119.13,109.87 119.13,106.58 122.47,106.58 			"/>
			<path class="st1" d="M153.92,115.32c-1.08,0-1.92,0.84-1.92,1.88c0,1.06,0.84,1.92,1.92,1.92c1.05,0,1.86-0.86,1.86-1.92
				C155.78,116.17,154.97,115.32,153.92,115.32"/>
			<polygon class="st1" points="149.78,103.79 141.36,103.79 141.36,106.58 143.92,106.58 143.92,118.88 147.21,118.88 
				147.21,106.58 149.78,106.58 			"/>
			<path class="st1" d="M135.67,107.19v-2.91c-0.93-0.46-1.86-0.71-2.93-0.71c-2.81,0-4.32,2.02-4.32,4.43
				c0,2.18,1.15,3.31,3.05,4.47c0.91,0.63,1.94,1.05,1.94,2.2c0,1.01-0.82,1.65-1.91,1.65c-0.95,0-1.71-0.31-2.47-0.81v2.87
				c0.76,0.49,1.89,0.76,2.82,0.76c3.06,0,4.76-2.04,4.76-4.72c0-4.09-4.99-4.24-4.99-6.71c0-0.91,0.65-1.49,1.64-1.49
				C134.19,106.21,134.98,106.66,135.67,107.19"/>
		</g>
		<g>
			<g>
				<g>
					<path class="st1" d="M106.83,204.77c-2.74,2.75-6.32,5.49-9.83,6.61c-3.31,1.07-12.76,1.89-15.54-5.91
						c-0.6-1.69-0.11-2.21,1.42-2.66c2.28-0.68,8.15-2.4,14.35-4.73c5.62-2.1,10.64-4.67,12.21-5.72c2.81-1.85,3.23-4.45,2-7.24
						c-3.95-8.87-12.88-18.16-27.72-15.33c-11.8,2.25-20.25,12.87-20.25,25.02c0,15.04,9.06,23.84,20.6,26.57
						c10.66,2.54,23.21-2.63,28.57-11.32C114.76,206.69,108.77,202.72,106.83,204.77z M80.12,192.93
						c-1.16-3.19-0.23-12.95,5.15-14.8c5.66-1.94,9.13,0.98,10.82,6.68c0.63,2.11,0.49,4.34-0.2,5.19c-1,1.21-2.79,1.94-4.4,2.48
						l-4.24,1.41C83.08,195.3,81.1,195.59,80.12,192.93z"/>
					<path class="st1" d="M245.01,204.77c-2.74,2.75-6.32,5.49-9.83,6.61c-3.31,1.07-12.76,1.89-15.54-5.91
						c-0.6-1.69-0.11-2.21,1.42-2.66c2.28-0.68,8.15-2.4,14.35-4.73c5.62-2.1,10.64-4.67,12.21-5.72c2.81-1.85,3.23-4.45,2-7.24
						c-3.95-8.87-12.88-18.16-27.72-15.33c-11.8,2.25-20.25,12.87-20.25,25.02c0,15.04,9.07,23.84,20.6,26.57
						c10.66,2.54,23.2-2.63,28.57-11.32C252.94,206.69,246.95,202.72,245.01,204.77z M218.29,192.93c-0.69-1.91-0.64-6.16,0.66-9.67
						c0.88-2.36,2.19-4.2,4.48-5.12c2.59-1.04,4.8-0.75,6.53,0.24c1.98,1.14,3.39,3.39,4.29,6.44c0.63,2.11,0.49,4.34-0.2,5.19
						c-1,1.21-2.57,1.83-4.4,2.48c-1.83,0.66-3.47,1.18-4.24,1.43C221.23,195.22,219.27,195.59,218.29,192.93z"/>
					<path class="st1" d="M350.34,204.77c-2.74,2.75-6.32,5.49-9.83,6.61c-3.31,1.07-12.76,1.89-15.54-5.91
						c-0.6-1.69-0.11-2.21,1.42-2.66c2.28-0.68,8.15-2.4,14.35-4.73c5.62-2.1,10.64-4.67,12.21-5.72c2.81-1.85,3.23-4.45,2-7.24
						c-3.95-8.87-12.88-18.16-27.72-15.33c-11.8,2.25-20.25,12.87-20.25,25.02c0,15.04,9.06,23.84,20.6,26.57
						c10.66,2.54,23.21-2.63,28.57-11.32C358.27,206.69,352.28,202.72,350.34,204.77z M323.62,192.93
						c-0.69-1.91-0.64-6.16,0.67-9.67c0.88-2.36,2.19-4.2,4.48-5.12c2.59-1.04,4.8-0.75,6.53,0.24c1.98,1.14,3.39,3.39,4.29,6.44
						c0.63,2.11,0.49,4.34-0.2,5.19c-1,1.21-2.57,1.83-4.4,2.48c-1.83,0.66-3.46,1.18-4.24,1.43
						C326.56,195.22,324.6,195.59,323.62,192.93z"/>
					<path class="st1" d="M39.62,207.63c0,2.02-0.63,4.23-2.19,4.92l-3.36,1.52c-0.6,0.28-0.77,0.72-0.77,1.39
						c0,0.17,0.01,0.27,0.05,0.5l0.4,3.82c0.18,1.04,0.89,1.21,2.26,1.21h24.37c1.38,0,2.09-0.17,2.26-1.21l0.4-3.82
						c0.03-0.23,0.05-0.33,0.05-0.5c0-0.67-0.17-1.11-0.77-1.39l-3.36-1.52c-1.55-0.69-2.19-2.9-2.19-4.92v-42.21
						c0-2.02,0.63-4.23,2.19-4.92l3.36-1.52c0.6-0.27,0.77-0.72,0.77-1.39c0-0.17-0.01-0.27-0.05-0.5l-0.4-2.87
						c-0.18-1.04-0.89-1.21-2.26-1.21H37.14c-1.38,0-2.09,0.17-2.26,1.21l-0.4,2.87c-0.03,0.23-0.05,0.33-0.05,0.5
						c0,0.67,0.17,1.11,0.77,1.39l2.74,1.52c1.57,0.9,1.67,2.91,1.67,4.92v11.77c0,0.82-0.66,1.48-1.48,1.48h-13.2
						c-0.82,0-1.48-0.66-1.48-1.48v-11.77c0-2.02,0.1-4.02,1.67-4.92l2.74-1.52c0.6-0.27,0.77-0.72,0.77-1.39
						c0-0.17-0.01-0.27-0.05-0.5l-0.4-2.87c-0.18-1.04-0.89-1.21-2.26-1.21H2.71c-1.38,0-2.09,0.17-2.26,1.21l-0.4,2.87
						c-0.03,0.23-0.05,0.33-0.05,0.5c0,0.67,0.17,1.11,0.77,1.39l3.36,1.52c1.55,0.69,2.19,2.91,2.19,4.92v42.21
						c0,2.02-0.63,4.23-2.19,4.92l-3.36,1.52c-0.6,0.28-0.77,0.72-0.77,1.39c0,0.17,0.01,0.27,0.05,0.5l0.4,3.82
						c0.18,1.04,0.89,1.21,2.26,1.21h24.37c1.38,0,2.09-0.17,2.26-1.21l0.4-3.82c0.03-0.23,0.05-0.33,0.05-0.5
						c0-0.67-0.17-1.11-0.77-1.39l-3.36-1.52c-1.55-0.69-2.19-2.9-2.19-4.92v-17.16c0-0.82,0.66-1.48,1.48-1.48h13.2
						c0.82,0,1.48,0.66,1.48,1.48V207.63z"/>
					<g>
						<path class="st1" d="M135.67,160.12c0,4.69-3.94,8.49-8.8,8.49c-4.86,0-8.79-3.8-8.79-8.49c0-4.69,3.94-8.49,8.79-8.49
							C131.73,151.63,135.67,155.43,135.67,160.12z"/>
						<path class="st1" d="M117.26,220.98c-1.32,0-2-0.16-2.17-1.16l-0.38-3.81c-0.03-0.22-0.03-0.32-0.03-0.48
							c0-0.64,0.18-1.03,0.72-1.33l2.62-1.46c1.45-0.7,2.1-2.79,2.1-4.72v-24.1c0-2.02-0.35-4.59-2.12-5.48l-1.68-0.97
							c-0.6-0.27-0.77-0.72-0.77-1.38c0-0.17,0.01-0.27,0.05-0.5l0.4-2.87c0.18-1.04,0.89-1.21,2.26-1.21h16.46
							c0.82,0,1.48,0.66,1.48,1.48v35.03c0,1.94,0.65,4.02,2.1,4.72l2.62,1.46c0.55,0.3,0.72,0.69,0.72,1.33
							c0,0.16,0.01,0.27-0.03,0.48l-0.38,3.81c-0.17,1-0.85,1.16-2.17,1.16H117.26z"/>
					</g>
					<path class="st1" d="M167.08,174.08c0,0,0.93-0.45,2.59-1.26c3.3-1.55,9.75-4.32,15.08-2.62c4.62,1.48,8.61,4.83,8.61,13.63
						c0,10,0,22.75,0,26.67c0,1.14,0.05,1.61,0.58,1.9c0.71,0.39,1.94-0.77,3.12-1.38c1.19-0.61,1.85,0.11,2.58,0.91
						c0.64,0.71,1.4,1.7,0.78,3.01c-1.97,4.13-6.38,6.5-11.55,6.5c-4.88,0-11.09-2.8-11.09-10.11s0-22.41,0-25.68
						c0-3.92-2.85-5.29-5.06-5.01c-3.34,0.41-5.77,3.21-5.77,8.19l0,19.19c0,1.94,0.65,4.02,2.1,4.72l2.62,1.46
						c0.55,0.3,0.72,0.69,0.72,1.33c0,0.16,0.01,0.27-0.03,0.48l-0.38,3.81c-0.17,1-0.85,1.16-2.17,1.16h-21.81
						c-1.32,0-2-0.16-2.17-1.16l-0.38-3.81c-0.03-0.22-0.03-0.32-0.03-0.48c0-0.64,0.18-1.03,0.72-1.33l2.62-1.46
						c1.45-0.7,2.1-2.79,2.1-4.72v-24.1c0-2.02-0.34-4.59-2.11-5.48l-1.68-0.97c-0.6-0.27-0.77-0.72-0.77-1.38
						c0-0.17,0.01-0.27,0.05-0.5l0.4-2.87c0.18-1.04,0.89-1.21,2.26-1.21h15.51c1.22,0,1.69,0.7,2.04,1.48L167.08,174.08z"/>
					<path class="st1" d="M379.91,174.08c0,0,0.93-0.45,2.59-1.26c3.3-1.55,9.75-4.32,15.08-2.62c4.62,1.48,8.61,4.83,8.61,13.63
						c0,10,0,22.75,0,26.67c0,1.14,0.05,1.61,0.58,1.9c0.71,0.39,1.94-0.77,3.12-1.38c1.19-0.61,1.85,0.11,2.58,0.91
						c0.64,0.71,1.4,1.7,0.78,3.01c-1.97,4.13-6.38,6.5-11.55,6.5c-4.88,0-11.09-2.8-11.09-10.11s0-22.41,0-25.68
						c0-3.92-2.85-5.29-5.06-5.01c-3.34,0.41-5.77,3.21-5.77,8.19l0,19.19c0,1.94,0.65,4.02,2.1,4.72l2.62,1.46
						c0.55,0.3,0.72,0.69,0.72,1.33c0,0.16,0.01,0.27-0.03,0.48l-0.38,3.81c-0.17,1-0.85,1.16-2.17,1.16h-21.81
						c-1.32,0-2-0.16-2.17-1.16l-0.38-3.81c-0.03-0.22-0.03-0.32-0.03-0.48c0-0.64,0.18-1.03,0.72-1.33l2.62-1.46
						c1.45-0.7,2.1-2.79,2.1-4.72v-24.1c0-2.02-0.34-4.59-2.12-5.48l-1.68-0.97c-0.6-0.27-0.77-0.72-0.77-1.38
						c0-0.17,0.01-0.27,0.05-0.5l0.4-2.87c0.18-1.04,0.89-1.21,2.26-1.21h15.51c1.22,0,1.69,0.7,2.04,1.48L379.91,174.08z"/>
					<path class="st1" d="M300.93,208.69c1.16,1.86,2.57,3.35,4.02,4.06l2.62,1.46c0.55,0.3,0.72,0.69,0.72,1.33
						c0,0.16,0,0.27-0.03,0.48l-0.38,3.81c-0.17,1-0.85,1.16-2.17,1.16h-13.17c-2.25,0-2.42-0.65-3.44-2.49l-11.04-20.1l-4.15,3.98
						l0,5.66c0,1.94,0.91,3.96,2.42,4.72l2.62,1.46c0.55,0.3,0.72,0.69,0.72,1.33c0,0.16,0.01,0.27-0.03,0.48l-0.38,3.81
						c-0.17,1-0.85,1.16-2.17,1.16H255.3c-1.32,0-2-0.16-2.17-1.16l-0.38-3.81c-0.03-0.22-0.03-0.32-0.03-0.48
						c0-0.64,0.18-1.03,0.72-1.33l2.62-1.46c1.45-0.7,2.1-2.79,2.1-4.72v-43.15c0-1.93-0.6-3.95-2.1-4.72l-2.62-1.46
						c-0.55-0.3-0.72-0.69-0.72-1.33c0-0.16-0.01-0.26,0.03-0.48l0.38-2.72c0.17-1,0.85-1.16,2.17-1.16h15.81
						c1.55,0,2.81,1.26,2.81,2.81v32.76l7.03-6.35c1-0.86,2.64-2.3,3.28-2.94c0.64-0.64,0.77-1.59-0.14-1.97l-2.48-1.12
						c-0.55-0.25-0.71-0.65-0.71-1.26c0-0.15,0.01-0.25,0.04-0.46l0.36-3.48c0.16-0.95,0.81-1.1,2.06-1.1h18.93
						c1.25,0,1.9,0.15,2.06,1.1l0.36,3.48c0.03,0.21,0.04,0.31,0.04,0.46c0.04,0.75-0.85,1.12-1.4,1.37c0,0-1.35,0.39-2.57,1.09
						c-1.22,0.7-2.53,1.74-4.17,3.22l-7.3,7.01L300.93,208.69z"/>
				</g>
			</g>
			<g>
				<g>
					<path class="st1" d="M402.82,158.19L402.82,158.19c0,7.23,5.86,13.09,13.08,13.09c7.22,0,13.08-5.86,13.08-13.09
						c0-7.22-5.86-13.06-13.08-13.06C408.67,145.13,402.82,150.97,402.82,158.19L402.82,158.19z M415.89,168.48L415.89,168.48
						c-5.69,0-10.29-4.6-10.29-10.29c0-5.67,4.6-10.28,10.29-10.28c5.67,0,10.29,4.6,10.29,10.28
						C426.19,163.88,421.57,168.48,415.89,168.48L415.89,168.48z"/>
				</g>
				<g>
					<path class="st1" d="M410.51,164.55h3.23v-5.5c0.01,0,0.2,0.02,1.29,0.07c1.62,0.07,2.46,0.36,2.94,1.87
						c0.34,1.05,0.5,2.03,1.17,3.56c1.43,0.03,1.83,0.03,3.31,0.03c-0.35-0.88-0.88-1.94-1.11-3.43c-0.24-1.55-0.77-2.4-1.92-3.18
						c1.05-0.38,2.11-1.68,2.11-3.58c0-2.99-3.12-3.92-4.26-3.92c-1.15,0-6.75,0-6.75,0V164.55z M416.36,156.24L416.36,156.24
						c-1.1,0-2.61,0-2.61,0v-3.21c0,0,1.28,0,2.28,0c0.99,0,2.18,0.42,2.18,1.53C418.21,155.54,417.45,156.24,416.36,156.24
						L416.36,156.24z"/>
				</g>
			</g>
		</g>
	</g>
</g>
</svg>
